<?xml version="1.0" standalone="no"?>
<!DOCTYPE svg PUBLIC "-//W3C//DTD SVG 20010904//EN"
 "http://www.w3.org/TR/2001/REC-SVG-20010904/DTD/svg10.dtd">
<svg version="1.0" xmlns="http://www.w3.org/2000/svg"
 width="100.000000pt" height="88.000000pt" viewBox="0 0 100.000000 88.000000"
 preserveAspectRatio="xMidYMid meet">

<g transform="translate(0.000000,88.000000) scale(0.100000,-0.100000)"
fill="#000000" stroke="none">
<path d="M131 463 c-75 -250 -118 -410 -112 -416 5 -5 38 -11 74 -14 219 -18
428 151 456 370 6 45 9 -1 10 -167 l1 -229 59 6 c126 11 271 118 327 242 36
79 50 172 36 247 -34 181 -166 320 -340 357 -89 19 -82 35 -83 -191 -1 -157
-3 -190 -10 -144 -13 86 -59 177 -122 240 -47 47 -139 106 -165 106 -5 0 -64
-183 -131 -407z"/>
</g>
</svg>
